<svg xmlns="http://www.w3.org/2000/svg" viewBox="0 0 1440 980" width="1440" height="980">
  <defs>
    <style>
      .bg-canvas { fill: #f1f5f9; }
      .frame-bg { fill: #ffffff; stroke: #cbd5e1; stroke-width: 1; }
      .slot-box { fill: #f8fafc; stroke: #e2e8f0; stroke-width: 1; }
      .slot-box-dashed { fill: #f8fafc; stroke: #94a3b8; stroke-width: 1; stroke-dasharray: 4 3; }
      .slot-hero { fill: #eff6ff; stroke: #3b82f6; stroke-width: 1.5; }
      .slot-accent { fill: #2563eb; }
      .text-title { font-family: -apple-system, BlinkMacSystemFont, "Segoe UI", Roboto, sans-serif; font-size: 14px; font-weight: 700; fill: #1e293b; }
      .text-desc { font-family: -apple-system, BlinkMacSystemFont, "Segoe UI", Roboto, sans-serif; font-size: 11px; fill: #64748b; }
      .text-dim { font-family: ui-monospace, monospace; font-size: 10px; fill: #94a3b8; }
      .badge-tag { fill: #e2e8f0; }
    </style>
  </defs>

  <!-- Figma Canvas Background -->
  <rect id="Canvas: Background" class="bg-canvas" width="1440" height="980" />

  <!-- Frame: Desktop 1200 Root Container -->
  <g id="Frame: LeetModel_Home_Desktop_1200" transform="translate(120, 20)">
    <!-- Canvas Shadow / Outer Boundary -->
    <rect id="Rect: Page_Background" class="frame-bg" width="1200" height="940" rx="8" />

    <!-- Topbar Frame (W: 1200, H: 56) -->
    <g id="Frame: Topbar" transform="translate(0, 0)">
      <rect id="Rect: Topbar_BG" fill="#ffffff" width="1200" height="56" rx="8 8 0 0" />
      <line x1="0" y1="56" x2="1200" y2="56" stroke="#e2e8f0" stroke-width="1" />
      
      <!-- Slot: Logo (120 x 28) -->
      <g id="Frame: Logo_Slot" transform="translate(32, 14)">
        <rect width="120" height="28" rx="4" fill="#eff6ff" stroke="#3b82f6" stroke-width="1" />
        <text x="60" y="18" text-anchor="middle" class="text-title" fill="#2563eb" font-size="12">[Logo 品牌位]</text>
      </g>

      <!-- Slot: Navigation Links (Gap: 24) -->
      <g id="Frame: Nav_Links_Group" transform="translate(180, 19)">
        <!-- Nav Item: 首页 (Active) -->
        <rect x="0" y="0" width="48" height="20" rx="3" fill="#dbeafe" />
        <text x="24" y="14" text-anchor="middle" font-size="12" font-weight="700" fill="#1d4ed8">首页</text>
        <line x1="0" y1="24" x2="48" y2="24" stroke="#2563eb" stroke-width="2" />
        <!-- Nav Item: 题库 -->
        <text x="76" y="14" font-size="12" fill="#64748b">题库</text>
        <!-- Nav Item: 我的队伍 -->
        <text x="128" y="14" font-size="12" fill="#64748b">我的队伍</text>
        <!-- Nav Item: 排行榜 -->
        <text x="200" y="14" font-size="12" fill="#64748b">排行榜</text>
      </g>

      <!-- Slot: Right Utilities (Search + Avatar) -->
      <g id="Frame: Right_Utilities" transform="translate(980, 14)">
        <rect x="0" y="0" width="140" height="28" rx="6" fill="#f1f5f9" stroke="#cbd5e1" stroke-width="1" stroke-dasharray="3 2" />
        <text x="12" y="18" font-size="11" fill="#94a3b8">[真题搜寻框]</text>
        <circle cx="168" cy="14" r="14" fill="#cbd5e1" />
      </g>
    </g>

    <!-- Frame: Page Body (Padding: 24, W: 1200) -->
    <g id="Frame: Page_Content_Area" transform="translate(24, 80)">
      
      <!-- Slot: Status Banner (W: 1152, H: 60) -->
      <g id="Frame: Header_Status_Banner" transform="translate(0, 0)">
        <rect width="1152" height="60" rx="8" class="slot-box" />
        <text x="20" y="26" class="text-title" font-size="16">[问候语槽位: 队长姓名 / 欢迎开启建模实训]</text>
        <text x="20" y="46" class="text-desc">[副标题提示: 赛前短周期突击 · 全真演练状态]</text>
        
        <!-- Status Pill Right -->
        <g id="Frame: Status_Pill" transform="translate(940, 16)">
          <rect width="192" height="28" rx="14" fill="#eff6ff" stroke="#3b82f6" stroke-width="1" stroke-dasharray="3 2" />
          <text x="96" y="18" text-anchor="middle" font-size="11" font-weight="600" fill="#2563eb">[当前实训态势徽标]</text>
        </g>
      </g>

      <!-- Main Layout Grid: 68% Left Col (W: 768) + 32% Right Col (W: 364), Gap: 20 -->
      <g id="Frame: 2_Column_Grid" transform="translate(0, 80)">
        
        <!-- Left Main Column (Width: 768px, Gap: 20px) -->
        <g id="Frame: Left_Main_Column" transform="translate(0, 0)">
          
          <!-- Block 1: Hero Active Practice (W: 768, H: 220) -->
          <g id="Frame: Block1_Hero_Active_Practice" transform="translate(0, 0)">
            <rect width="768" height="220" rx="8" class="slot-hero" />
            <!-- Tag Label -->
            <rect x="16" y="-9" width="168" height="18" rx="4" fill="#2563eb" />
            <text x="24" y="4" font-size="10" font-weight="700" fill="#ffffff">BLOCK 1: 实训焦点核心区</text>

            <!-- Header inside Block -->
            <text x="20" y="32" class="text-title">[当前进行中的小队实训 / 赛题名称与年份标签槽位]</text>
            <rect x="640" y="18" width="108" height="20" rx="4" fill="#dbeafe" />
            <text x="694" y="32" text-anchor="middle" font-size="10" font-weight="600" fill="#1e40af">[真题类别标签]</text>

            <!-- Countdown Box Slot -->
            <g id="Frame: Countdown_Box_Slot" transform="translate(20, 50)">
              <rect width="728" height="64" rx="6" fill="#ffffff" stroke="#bfdbfe" stroke-width="1" />
              <text x="20" y="26" class="text-desc">[距最终截稿倒计时位]</text>
              <rect x="20" y="34" width="160" height="22" rx="4" fill="#fee2e2" stroke="#f87171" stroke-width="1" />
              <text x="100" y="49" text-anchor="middle" font-size="13" font-weight="800" fill="#b91c1c" font-family="monospace">18:42:15 [时钟槽]</text>
              
              <text x="708" y="26" text-anchor="end" class="text-desc">[已交版本进度]</text>
              <text x="708" y="48" text-anchor="end" class="text-title" font-size="12">V2 (中期草稿留痕)</text>
            </g>

            <!-- Roles Row Slot -->
            <g id="Frame: Roles_Row_Slot" transform="translate(20, 126)">
              <rect x="0" y="0" width="232" height="28" rx="4" fill="#ffffff" stroke="#cbd5e1" stroke-width="1" />
              <text x="116" y="18" text-anchor="middle" class="text-desc">[建模手职责槽位]</text>
              <rect x="248" y="0" width="232" height="28" rx="4" fill="#ffffff" stroke="#cbd5e1" stroke-width="1" />
              <text x="364" y="18" text-anchor="middle" class="text-desc">[编程手职责槽位]</text>
              <rect x="496" y="0" width="232" height="28" rx="4" fill="#ffffff" stroke="#cbd5e1" stroke-width="1" />
              <text x="612" y="18" text-anchor="middle" class="text-desc">[论文手职责槽位]</text>
            </g>

            <!-- CTA Button Slot -->
            <g id="Frame: CTA_Button_Slot" transform="translate(20, 166)">
              <rect width="728" height="38" rx="6" class="slot-accent" />
              <text x="364" y="24" text-anchor="middle" font-size="13" font-weight="700" fill="#ffffff">[主行动按钮: 进入队伍详情工作台 (交卷 / 评审) &gt;]</text>
            </g>
          </g>

          <!-- Block 2: Diagnostic Report (W: 768, H: 200) -->
          <g id="Frame: Block2_Diagnostic_Report" transform="translate(0, 240)">
            <rect width="768" height="200" rx="8" class="frame-bg" />
            <!-- Tag Label -->
            <rect x="16" y="-9" width="180" height="18" rx="4" fill="#16a34a" />
            <text x="24" y="4" font-size="10" font-weight="700" fill="#ffffff">BLOCK 2: 论文 AI 体检诊断区</text>

            <text x="20" y="32" class="text-title">[最近论文 AI 深度体检诊断报告 / 获奖区间预估]</text>
            <rect x="640" y="18" width="108" height="20" rx="4" fill="#f0fdf4" stroke="#86efac" stroke-width="1" />
            <text x="694" y="32" text-anchor="middle" font-size="10" font-weight="600" fill="#166534">[预估国奖区间]</text>

            <!-- Diagnostic Content Layout -->
            <g id="Frame: Diagnostic_Layout" transform="translate(20, 52)">
              <!-- Circle Score Slot -->
              <circle cx="50" cy="50" r="46" fill="#eff6ff" stroke="#3b82f6" stroke-width="2" stroke-dasharray="4 2" />
              <text x="50" y="48" text-anchor="middle" font-size="22" font-weight="800" fill="#1d4ed8">84.5</text>
              <text x="50" y="66" text-anchor="middle" font-size="10" fill="#60a5fa">[预评分槽位]</text>

              <!-- Bars & Findings -->
              <g transform="translate(120, 10)">
                <!-- Bar 1: Phase 1 -->
                <text x="0" y="10" class="text-desc">阶段一 格式规范审查槽位</text>
                <text x="590" y="10" text-anchor="end" class="text-title" font-size="11">23.0 / 25</text>
                <rect x="0" y="18" width="590" height="8" rx="4" fill="#e2e8f0" />
                <rect x="0" y="18" width="540" height="8" rx="4" fill="#3b82f6" />

                <!-- Bar 2: Phase 2 -->
                <text x="0" y="44" class="text-desc">阶段二 小题建模推演槽位</text>
                <text x="590" y="44" text-anchor="end" class="text-title" font-size="11">61.5 / 75</text>
                <rect x="0" y="52" width="590" height="8" rx="4" fill="#e2e8f0" />
                <rect x="0" y="52" width="480" height="8" rx="4" fill="#3b82f6" />

                <!-- Findings Text Lines -->
                <g transform="translate(0, 72)">
                  <line x1="0" y1="0" x2="590" y2="0" stroke="#e2e8f0" stroke-width="1" stroke-dasharray="2 2" />
                  <rect x="0" y="8" width="450" height="12" rx="3" fill="#f1f5f9" />
                  <text x="6" y="18" font-size="9" fill="#64748b">[排雷结论槽位 1: 摘要完整性 / 关键词检查结果]</text>
                  <rect x="0" y="26" width="380" height="12" rx="3" fill="#f1f5f9" />
                  <text x="6" y="36" font-size="9" fill="#64748b">[排雷结论槽位 2: 公式符号表自洽性检查结果]</text>
                </g>
              </g>
            </g>

            <!-- Action Link Slot -->
            <g transform="translate(20, 172)">
              <text x="0" y="12" font-size="11" font-weight="600" fill="#2563eb">[行动入口: 展开双轨改写提分建议 &gt;]</text>
              <text x="728" y="12" text-anchor="end" font-size="11" fill="#64748b">[查看完整 V3 评审量表 &gt;]</text>
            </g>
          </g>

          <!-- Block 3: Curated Problems (W: 768, H: 200) -->
          <g id="Frame: Block3_Curated_Problems" transform="translate(0, 460)">
            <rect width="768" height="200" rx="8" class="frame-bg" />
            <!-- Tag Label -->
            <rect x="16" y="-9" width="168" height="18" rx="4" fill="#0891b2" />
            <text x="24" y="4" font-size="10" font-weight="700" fill="#ffffff">BLOCK 3: 经典赛题备战通道</text>

            <text x="20" y="32" class="text-title">[经典真题快速开题 / 题源与算法分类]</text>
            <text x="748" y="32" text-anchor="end" font-size="11" font-weight="600" fill="#2563eb">[全部题库 &gt;]</text>

            <!-- Problem Row 1 -->
            <g id="Frame: Problem_Row_1" transform="translate(20, 50)">
              <rect width="728" height="58" rx="6" class="slot-box" />
              <text x="16" y="24" class="text-title" font-size="13">[赛题条目槽位 1: 2024 国赛 B 题 · 生产过程决策]</text>
              <text x="16" y="44" class="text-desc">[题型标签: 运筹优化 · 抽样检验 · 决策树]</text>
              <rect x="636" y="16" width="76" height="26" rx="4" fill="#eff6ff" stroke="#3b82f6" stroke-width="1" />
              <text x="674" y="33" text-anchor="middle" font-size="11" font-weight="600" fill="#2563eb">以此题建队</text>
            </g>

            <!-- Problem Row 2 -->
            <g id="Frame: Problem_Row_2" transform="translate(20, 120)">
              <rect width="728" height="58" rx="6" class="slot-box" />
              <text x="16" y="24" class="text-title" font-size="13">[赛题条目槽位 2: 2024 美赛 C 题 · 势头动态预测]</text>
              <text x="16" y="44" class="text-desc">[题型标签: 大数据 · 机器学习 · 随机过程]</text>
              <rect x="636" y="16" width="76" height="26" rx="4" fill="#eff6ff" stroke="#3b82f6" stroke-width="1" />
              <text x="674" y="33" text-anchor="middle" font-size="11" font-weight="600" fill="#2563eb">以此题建队</text>
            </g>
          </g>
        </g>

        <!-- Right Sidebar Column (Width: 364px, Gap: 20px) -->
        <g id="Frame: Right_Sidebar_Column" transform="translate(788, 0)">
          
          <!-- Block 4: Profile and Radar (W: 364, H: 380) -->
          <g id="Frame: Block4_Profile_Radar" transform="translate(0, 0)">
            <rect width="364" height="380" rx="8" class="frame-bg" />
            <!-- Tag Label -->
            <rect x="16" y="-9" width="168" height="18" rx="4" fill="#7c3aed" />
            <text x="24" y="4" font-size="10" font-weight="700" fill="#ffffff">BLOCK 4: 实训战绩与五维雷达</text>

            <text x="16" y="32" class="text-title">[个人战绩档案 / 论文篇数计数]</text>

            <!-- Fast Stats Grid (H: 56) -->
            <g id="Frame: Fast_Stats_Grid" transform="translate(16, 48)">
              <rect x="0" y="0" width="160" height="56" rx="6" class="slot-box" />
              <text x="80" y="24" text-anchor="middle" class="text-desc">[历史最高分槽位]</text>
              <text x="80" y="46" text-anchor="middle" class="text-title" font-size="16">84.5</text>

              <rect x="172" y="0" width="160" height="56" rx="6" class="slot-box" />
              <text x="252" y="24" text-anchor="middle" class="text-desc">[已模拟篇数 / 推荐总量]</text>
              <text x="252" y="46" text-anchor="middle" class="text-title" font-size="16">2 / 3 篇</text>
            </g>

            <!-- Radar Placeholder (W: 332, H: 210) -->
            <g id="Frame: Radar_Placeholder" transform="translate(16, 116)">
              <rect width="332" height="210" rx="6" class="slot-box-dashed" />
              <!-- Mini Radar Wireframe -->
              <polygon points="166,40 246,80 220,160 112,160 86,80" fill="#e2e8f0" stroke="#cbd5e1" stroke-width="1" />
              <polygon points="166,60 216,90 200,140 132,140 116,90" fill="#ffffff" stroke="#e2e8f0" stroke-width="1" />
              <polygon points="166,50 230,86 205,150 125,145 105,85" fill="rgba(37,99,235,0.15)" stroke="#2563eb" stroke-width="1.5" />
              <text x="166" y="26" text-anchor="middle" font-size="9" fill="#64748b">[模型假设]</text>
              <text x="260" y="84" text-anchor="start" font-size="9" fill="#64748b">[推导]</text>
              <text x="228" y="176" text-anchor="start" font-size="9" fill="#64748b">[代码]</text>
              <text x="104" y="176" text-anchor="end" font-size="9" fill="#64748b">[规范]</text>
              <text x="76" y="84" text-anchor="end" font-size="9" fill="#64748b">[评价]</text>
              <text x="166" y="196" text-anchor="middle" font-size="10" font-weight="600" fill="#2563eb">[五维学术技能雷达图挂载框]</text>
            </g>

            <text x="182" y="356" text-anchor="middle" class="text-desc">[能力定位: 强于算法求解 · 待强化学术规范]</text>
          </g>

          <!-- Block 5: Utility Toolkit (W: 364, H: 260) -->
          <g id="Frame: Block5_Utility_Toolkit" transform="translate(0, 400)">
            <rect width="364" height="260" rx="8" class="frame-bg" />
            <!-- Tag Label -->
            <rect x="16" y="-9" width="168" height="18" rx="4" fill="#475569" />
            <text x="24" y="4" font-size="10" font-weight="700" fill="#ffffff">BLOCK 5: 赛前突击工具箱</text>

            <text x="16" y="32" class="text-title">[赛前高频通道 / 规则与排雷指南]</text>

            <!-- Tool Item 1 -->
            <g id="Frame: Tool_Item_1" transform="translate(16, 48)">
              <rect width="332" height="42" rx="6" class="slot-box" />
              <text x="14" y="26" class="text-title" font-size="12">[队伍广场找队友入口 (急寻编程/论文手)]</text>
              <text x="318" y="26" text-anchor="end" class="text-desc">&gt;</text>
            </g>

            <!-- Tool Item 2 -->
            <g id="Frame: Tool_Item_2" transform="translate(16, 100)">
              <rect width="332" height="42" rx="6" class="slot-box" />
              <text x="14" y="26" class="text-title" font-size="12">[赛题排行榜入口 (横向摸底国奖排位)]</text>
              <text x="318" y="26" text-anchor="end" class="text-desc">&gt;</text>
            </g>

            <!-- Tool Item 3 -->
            <g id="Frame: Tool_Item_3" transform="translate(16, 152)">
              <rect width="332" height="42" rx="6" fill="#fffbeb" stroke="#fde68a" stroke-width="1" />
              <text x="14" y="26" font-size="12" font-weight="700" fill="#d97706">[2026 国赛 AI 使用格式避坑红线说明]</text>
              <text x="318" y="26" text-anchor="end" fill="#d97706">&gt;</text>
            </g>

            <text x="182" y="228" text-anchor="middle" class="text-desc">[常驻小贴士: 摘要首段三要素 · 附录说明要求]</text>
          </g>

        </g>
      </g>
    </g>
  </g>
</svg>